<?xml version="1.0" standalone="no"?>
<!DOCTYPE svg PUBLIC "-//W3C//DTD SVG 20010904//EN"
 "http://www.w3.org/TR/2001/REC-SVG-20010904/DTD/svg10.dtd">
<svg version="1.0" xmlns="http://www.w3.org/2000/svg"
 width="380.000000pt" height="380.000000pt" viewBox="0 0 380.000000 380.000000"
 preserveAspectRatio="xMidYMid meet">
<metadata>
Created by potrace 1.11, written by Peter Selinger 2001-2013
</metadata>
<g transform="translate(0.000000,380.000000) scale(0.100000,-0.100000)"
fill="#000000" stroke="none">
<path d="M1856 3691 c-3 -5 94 -66 217 -137 622 -359 1299 -743 1319 -749 49
-15 -67 59 -397 250 -187 109 -398 233 -470 275 -177 105 -573 334 -612 354
-36 18 -49 20 -57 7z"/>
<path d="M1490 3517 c-235 -128 -620 -344 -629 -353 -2 -2 -1 -7 2 -11 4 -4
20 2 35 13 15 11 45 28 67 38 22 11 42 22 45 25 3 3 22 15 42 26 32 17 181
101 288 162 19 11 114 64 210 118 159 89 202 115 190 115 -3 0 -115 -60 -250
-133z"/>
<path d="M1717 3500 c-54 -33 -100 -60 -102 -60 -3 0 -28 -15 -57 -34 -29 -18
-111 -67 -183 -108 -71 -41 -206 -120 -300 -175 -93 -55 -182 -106 -197 -114
-41 -22 -429 -250 -466 -275 l-33 -21 2 -569 c1 -313 2 -585 4 -604 1 -19 3
-141 4 -271 l1 -236 193 -110 c105 -61 282 -161 392 -223 311 -176 808 -461
830 -476 11 -8 27 -14 37 -14 10 0 124 62 255 138 131 76 342 198 468 272 127
73 250 145 275 160 42 25 166 98 370 216 l85 50 -1 839 -1 839 -23 16 c-13 8
-142 83 -289 166 -146 83 -432 246 -636 363 -511 294 -506 291 -519 291 -6 0
-55 -27 -109 -60z m93 -15 c0 -22 -4 -25 -38 -25 -48 0 -132 -50 -132 -79 0
-24 32 -36 60 -21 30 16 25 33 -7 25 -51 -12 -3 22 49 36 52 14 68 8 48 -16
-39 -47 -172 -93 -229 -80 -38 8 -49 23 -24 32 10 4 48 26 85 51 65 42 164 98
181 101 4 0 7 -10 7 -24z m109 -7 c229 -129 251 -150 159 -150 -81 0 -178 38
-217 86 -12 14 -10 16 13 16 30 0 106 -29 106 -40 0 -5 -10 -6 -21 -3 -16 4
-20 2 -17 -8 2 -8 21 -15 41 -17 31 -3 37 0 37 16 0 35 -60 73 -129 82 -37 4
-45 9 -46 28 -2 29 7 28 74 -10z m-105 -130 c-1 -13 -3 -65 -3 -116 -1 -59 -5
-91 -11 -87 -6 4 -10 53 -10 116 0 84 3 109 13 109 8 0 13 -9 11 -22z m56 -99
c0 -66 -4 -109 -10 -109 -6 0 -10 45 -10 116 0 74 4 113 10 109 6 -4 10 -53
10 -116z m-370 73 c0 -4 -57 -41 -127 -82 -71 -40 -218 -126 -328 -190 -241
-141 -248 -145 -244 -131 4 10 675 408 692 410 4 1 7 -3 7 -7z m752 -36 c40
-24 195 -112 343 -196 301 -171 280 -158 273 -166 -6 -5 -682 377 -702 397
-24 22 19 6 86 -35z m-762 -61 c-7 -9 -11 -17 -9 -20 2 -2 44 -9 93 -16 80
-11 90 -11 118 6 17 10 29 13 27 7 -6 -14 -141 -103 -148 -97 -3 4 1 10 9 16
24 14 -1 24 -95 38 -63 10 -88 10 -105 1 -11 -6 -26 -10 -32 -8 -7 3 22 23 63
45 81 45 98 51 79 28z m799 -51 c100 -29 179 -97 156 -133 -11 -18 -154 -12
-239 9 -94 24 -199 61 -191 68 2 3 37 -7 77 -22 121 -43 257 -51 291 -17 40
40 -120 113 -168 77 -18 -13 -18 -16 -5 -30 8 -8 33 -24 55 -35 22 -11 33 -20
24 -21 -19 0 -106 44 -131 67 -52 47 26 69 131 37z m-863 -46 c-3 -13 -9 -47
-12 -76 -4 -29 -10 -54 -14 -57 -3 -2 -38 4 -76 14 -72 18 -99 16 -123 -13
-15 -18 -41 -22 -41 -6 0 5 12 16 27 24 l28 14 -38 7 c-38 7 -38 7 -18 27 16
14 25 16 40 8 35 -18 75 -9 146 35 82 50 89 53 81 23z m358 -27 c3 -4 -2 -16
-12 -24 -20 -19 -145 -77 -164 -77 -21 0 5 16 55 35 52 20 61 35 20 35 -32 0
-113 -46 -113 -64 0 -30 25 -36 86 -20 56 14 144 61 144 77 0 4 5 7 10 7 14 0
13 -57 -1 -66 -8 -5 -312 -74 -326 -74 -2 0 -3 7 -3 16 0 61 276 202 304 155z
m208 -15 c36 -13 81 -34 100 -46 43 -30 88 -72 88 -82 0 -15 -69 -8 -123 12
-56 21 -115 70 -85 70 27 0 75 -25 71 -37 -6 -17 16 -26 32 -13 20 17 8 38
-37 61 -48 24 -111 23 -116 -3 -2 -10 8 -29 23 -44 l26 -26 -43 7 c-79 12 -78
11 -78 71 l0 54 38 0 c20 0 67 -11 104 -24z m578 -191 c172 -35 281 -62 292
-72 10 -9 16 -18 14 -20 -3 -3 -134 22 -623 118 -29 6 -53 12 -53 14 0 25 14
32 53 24 23 -4 166 -33 317 -64z m-1120 47 c0 -15 -13 -21 -57 -31 -127 -26
-247 -52 -427 -91 -104 -22 -190 -39 -192 -37 -2 2 7 13 19 25 18 17 68 31
213 62 104 21 239 50 299 63 139 31 145 31 145 9z m350 13 c0 -3 -19 -38 -41
-78 -23 -40 -61 -106 -85 -147 -53 -94 -72 -111 -127 -117 -39 -5 -48 -1 -80
27 -21 18 -42 48 -48 69 -22 74 47 175 134 195 34 8 77 -30 77 -67 0 -38 -41
-91 -73 -95 -38 -5 -46 22 -16 54 16 17 20 27 12 35 -8 8 -17 5 -32 -10 -50
-50 -30 -111 37 -111 82 0 134 136 76 201 -13 15 -8 18 58 32 82 17 108 20
108 12z m175 -12 l75 -16 -20 -22 c-38 -41 -20 -143 32 -179 48 -34 108 -11
108 42 0 24 -34 72 -52 72 -13 0 -9 -27 7 -40 17 -14 20 -46 4 -55 -20 -13
-59 5 -74 35 -20 38 -19 94 1 111 63 52 194 -51 194 -153 0 -71 -71 -136 -133
-124 -54 11 -72 31 -152 168 -43 73 -85 143 -93 156 -13 20 -13 22 7 22 11 0
54 -7 96 -17z m45 -340 c0 -49 -31 -103 -75 -129 -124 -72 -261 -18 -280 111
-8 53 7 91 47 115 47 28 99 26 137 -6 37 -31 42 -81 11 -109 -26 -23 -67 -13
-72 18 -2 12 -10 22 -18 22 -19 0 -14 -43 7 -67 24 -27 75 -23 106 7 33 34 38
66 17 112 -23 50 -67 75 -128 72 -26 -1 -46 2 -45 7 1 5 25 49 53 98 l52 87
94 -158 c51 -87 94 -168 94 -180z m883 157 c75 -12 77 -14 61 -31 -10 -11 -27
-19 -38 -19 -12 0 -166 29 -344 63 -316 62 -324 64 -347 93 l-24 30 307 -62
c169 -34 342 -68 385 -74z m-1473 100 c-12 -16 -23 -30 -24 -30 -1 0 -149 -29
-327 -65 -178 -36 -334 -65 -346 -65 -22 0 -40 16 -30 27 3 3 142 34 309 69
167 36 330 71 363 78 33 8 64 15 68 15 5 1 -1 -12 -13 -29z m1615 -30 c50 -29
102 -59 118 -67 37 -20 34 -25 -10 -17 -23 4 -48 18 -63 35 -14 16 -49 40 -79
55 -48 24 -55 25 -69 10 -14 -14 -14 -16 4 -21 10 -4 42 -17 69 -30 44 -21 47
-24 22 -24 -38 -1 -87 21 -130 59 -93 81 0 81 138 0z m-2255 35 c0 -33 -122
-115 -172 -115 -20 0 -21 2 -7 15 8 9 37 24 64 34 57 22 70 41 28 41 -30 0
-132 -54 -134 -70 -1 -6 -2 -16 -3 -22 -1 -12 -106 -41 -115 -32 -2 2 -2 5 0
7 16 12 202 119 234 136 48 24 105 28 105 6z m2264 -166 c45 -35 74 -117 47
-133 -11 -7 -38 23 -42 48 -7 34 -29 31 -29 -4 0 -39 41 -83 73 -78 33 5 50
49 37 96 -5 22 -19 51 -31 66 -19 24 -19 26 -2 25 38 -2 118 -26 117 -35 -1
-5 -14 -57 -29 -116 -26 -99 -30 -107 -55 -113 -44 -10 -78 5 -118 51 -37 41
-62 99 -62 141 0 24 36 73 54 73 7 0 25 -9 40 -21z m-2378 -4 c12 -8 24 -30
27 -51 12 -74 -62 -187 -131 -200 -42 -8 -52 4 -52 63 0 47 38 103 71 103 30
0 25 -48 -6 -62 -25 -11 -29 -28 -9 -35 6 -2 23 6 37 17 56 45 22 131 -43 108
-40 -13 -61 -41 -75 -94 l-12 -46 -23 86 c-13 48 -21 88 -19 90 9 7 146 34
179 35 20 0 45 -6 56 -14z m2047 -87 c37 -50 65 -93 62 -96 -3 -3 -11 0 -17 6
-29 29 -72 13 -215 -80 -104 -68 -120 -88 -108 -136 5 -23 4 -25 -7 -12 -18
19 -118 185 -118 195 0 5 8 2 18 -6 49 -40 60 -41 92 -9 17 17 35 30 40 30 13
0 141 90 168 118 23 25 28 47 12 57 -12 7 -13 25 -2 24 4 0 38 -41 75 -91z
m532 -305 c-7 -37 -19 -42 -35 -13 -16 30 -25 166 -11 174 8 5 11 -11 11 -53
0 -48 3 -61 15 -61 21 0 21 127 0 157 -14 20 -14 28 2 85 l18 63 3 -160 c2
-88 0 -175 -3 -192z m-2820 255 c11 -37 11 -47 -1 -63 -20 -27 -19 -155 1
-155 12 0 15 13 15 61 0 37 4 58 10 54 23 -14 1 -195 -25 -195 -7 0 -15 10
-19 23 -7 28 -8 332 0 325 3 -3 11 -26 19 -50z m1741 8 c10 -10 200 -333 261
-444 14 -26 71 -123 125 -216 90 -151 99 -171 89 -193 -6 -13 -11 -33 -11 -43
0 -11 -4 -20 -8 -20 -7 0 -92 142 -312 520 -37 63 -106 182 -154 263 -47 82
-86 150 -86 152 0 8 86 -9 96 -19z m-620 -43 c-18 -32 -115 -202 -216 -378
-101 -176 -206 -359 -233 -407 -27 -49 -52 -88 -57 -88 -4 0 -13 19 -19 43
l-12 42 124 220 c209 370 339 599 350 613 5 6 29 12 53 12 l43 0 -33 -57z m84
29 c0 -9 9 -32 20 -50 l21 -34 -70 -127 c-64 -116 -74 -129 -113 -147 -47 -21
-84 -52 -110 -92 -24 -36 -23 -59 5 -85 l24 -22 -108 -190 -109 -189 -64 -1
-65 0 32 55 c18 31 142 248 276 483 134 234 248 424 252 421 5 -3 9 -13 9 -22z
m-693 -8 c36 -22 73 -113 84 -205 6 -46 14 -106 17 -134 l7 -50 26 40 c14 22
45 73 69 113 45 76 45 83 25 180 -8 36 13 47 22 12 3 -12 20 -52 39 -90 32
-68 32 -68 12 -87 -32 -29 -76 -99 -134 -214 -73 -147 -94 -144 -94 14 0 74
-27 203 -52 251 -32 61 -74 95 -118 95 -57 0 -91 -54 -92 -148 -1 -47 -6 -72
-14 -75 -20 -8 -28 13 -27 65 2 110 43 195 117 240 33 21 73 18 113 -7z m1229
-186 c65 -112 139 -239 165 -283 26 -44 93 -159 149 -255 56 -96 107 -181 113
-188 14 -18 9 -19 -63 -13 l-65 6 -66 115 c-50 85 -69 130 -77 175 -22 133
-76 226 -152 265 -29 15 -50 43 -113 150 l-76 132 24 36 c14 20 25 42 25 49 0
35 27 -3 136 -189z m616 52 c34 -18 37 -18 31 -2 -4 10 10 2 31 -18 48 -44 96
-142 96 -194 0 -50 -33 -118 -73 -152 -57 -48 -91 -56 -214 -53 -26 1 -84 61
-111 116 -28 57 -29 144 -1 191 35 59 61 83 114 108 61 29 80 30 127 4z m358
0 c0 -6 -24 -99 -54 -208 -30 -108 -73 -267 -96 -352 -51 -187 -53 -191 -70
-151 -11 27 -8 45 24 163 68 249 146 533 151 546 5 14 45 16 45 2z m-2592 -12
c5 -7 53 -162 105 -344 87 -299 95 -335 84 -363 -6 -17 -15 -31 -19 -31 -4 0
-8 2 -8 4 0 10 -181 649 -206 729 -6 20 28 24 44 5z m2532 -426 c-50 -185 -96
-341 -101 -346 -28 -30 -14 28 147 609 33 118 37 126 42 97 2 -13 -38 -175
-88 -360z m-2556 240 c16 -59 62 -219 101 -355 55 -189 68 -247 57 -245 -11 2
-42 99 -109 333 -51 182 -93 340 -93 353 0 48 16 17 44 -86z m1361 48 c-12
-19 -40 -27 -65 -19 l-25 9 26 -4 c15 -1 35 3 45 11 21 16 27 17 19 3z m1368
-422 c3 -220 1 -400 -3 -403 -5 -3 -10 172 -12 392 -3 361 -2 421 7 411 1 -2
5 -182 8 -400z m-2833 35 c1 -192 3 -372 6 -400 4 -35 2 -53 -5 -53 -7 0 -11
39 -11 113 0 63 -3 243 -7 400 -5 215 -3 287 5 287 9 0 12 -91 12 -347z m1218
298 c44 -23 62 -49 77 -116 21 -88 -15 -186 -104 -291 -28 -32 -51 -63 -51
-69 0 -5 -17 -26 -37 -47 -20 -21 -33 -41 -30 -45 10 -9 180 -17 210 -9 15 3
38 26 57 56 52 81 68 61 26 -32 -13 -29 -32 -73 -42 -98 -10 -25 -19 -47 -21
-49 -1 -2 -19 4 -39 14 -31 15 -59 17 -182 14 -106 -3 -146 -1 -149 8 -2 6 29
47 70 90 125 131 194 258 204 371 4 54 2 75 -12 103 -39 74 -80 78 -149 14
-52 -47 -61 -52 -71 -35 -22 35 112 140 178 140 15 0 44 -9 65 -19z m519 -22
c30 -12 51 -32 72 -65 50 -78 66 -137 65 -249 0 -118 -23 -208 -64 -253 -17
-19 -24 -34 -18 -40 16 -16 -67 -42 -133 -42 -67 0 -93 13 -150 70 -27 28 -43
59 -64 124 -25 79 -27 97 -23 189 7 124 23 166 79 206 34 25 38 31 21 31 -36
0 -25 14 26 31 62 21 137 21 189 -2z m-1377 -4 c-7 -8 -17 -15 -23 -15 -6 0
-2 7 9 15 25 19 30 19 14 0z m95 -35 c-3 -5 -11 -10 -16 -10 -6 0 -7 5 -4 10
3 6 11 10 16 10 6 0 7 -4 4 -10z m5 -115 c-7 -8 -26 -14 -44 -13 l-31 1 33 4
c17 2 32 8 32 14 0 5 5 9 11 9 8 0 8 -5 -1 -15z m2310 -161 l0 -135 -36 38
-36 38 -23 -27 c-30 -35 -42 -109 -25 -155 14 -40 7 -55 -10 -22 -26 48 0 229
35 243 9 3 24 -4 37 -19 12 -14 25 -25 30 -25 4 0 8 38 8 85 0 67 -3 87 -15
91 -24 9 -17 24 10 24 l25 0 0 -136z m-2717 -112 c15 -81 37 -132 57 -132 13
0 24 64 16 95 -4 14 -2 25 4 25 5 0 10 -6 10 -12 0 -7 12 -38 27 -68 20 -43
28 -77 33 -155 4 -55 10 -108 15 -117 4 -10 3 -18 -3 -18 -15 0 -32 81 -32
154 0 35 -5 77 -12 93 l-11 28 -10 -47 c-7 -35 -14 -48 -26 -48 -36 0 -88 159
-96 290 -5 82 -1 69 28 -88z m2352 28 c105 -51 124 -226 27 -255 -34 -10 -92
51 -92 98 0 23 6 37 16 41 21 8 44 -11 44 -35 0 -11 7 -19 15 -19 22 0 18 40
-7 67 -25 27 -45 29 -76 7 -29 -20 -30 -84 -2 -129 23 -38 81 -69 110 -60 11
4 20 3 20 -2 0 -19 -44 -173 -49 -173 -8 0 -162 264 -175 298 -21 60 25 165
77 175 42 8 51 7 92 -13z m-1890 -4 c42 -18 66 -62 67 -125 1 -42 -8 -64 -81
-192 -46 -79 -85 -146 -87 -148 -8 -8 -12 4 -37 90 l-24 86 37 0 c64 0 120 63
120 133 0 33 -30 70 -58 70 -32 0 -62 -29 -62 -61 0 -39 26 -38 34 1 6 33 26
39 46 14 22 -25 1 -84 -39 -111 -30 -21 -37 -22 -55 -9 -12 7 -29 28 -40 45
-36 62 3 167 74 203 42 22 60 22 105 4z m2254 -173 c-1 -54 -3 -90 -6 -80 -5
17 -23 24 -23 8 0 -5 -20 -42 -45 -82 -29 -48 -45 -84 -45 -106 0 -18 -4 -33
-9 -33 -11 0 -20 170 -9 176 3 2 8 -4 10 -13 3 -13 15 -1 44 42 57 83 74 119
74 155 0 16 2 30 5 30 3 0 4 -44 4 -97z m-1993 -2 c48 -22 79 -61 95 -122 17
-62 5 -113 -38 -160 l-35 -39 -180 0 c-103 0 -178 4 -176 9 8 23 94 171 98
171 4 0 12 -16 19 -36 24 -65 123 -97 181 -57 34 23 40 33 40 67 0 55 -59 91
-114 70 -29 -11 -17 -24 22 -24 43 0 62 -14 62 -46 0 -30 -36 -54 -80 -54 -53
0 -91 43 -93 103 -2 54 22 93 74 119 43 23 74 22 125 -1z m1403 5 c61 -32 84
-121 47 -179 -40 -60 -156 -51 -156 11 0 38 22 56 59 49 34 -7 45 1 30 20 -19
22 -67 16 -95 -12 -19 -20 -24 -34 -22 -62 4 -50 44 -79 104 -76 58 2 92 25
113 74 9 21 18 39 21 39 7 -1 103 -170 99 -175 -2 -2 -83 -5 -179 -8 l-175 -5
-37 39 c-22 23 -40 53 -44 74 -15 83 27 183 89 210 42 19 111 19 146 1z m392
-2 c17 -21 24 -165 10 -236 -5 -32 -19 -76 -29 -99 -18 -38 -20 -40 -25 -18
-9 32 -7 146 3 184 9 35 13 25 10 -29 -1 -28 2 -37 12 -34 21 7 23 101 2 119
-14 11 -18 11 -30 -6 -22 -30 -34 -84 -34 -157 0 -69 -7 -79 -39 -59 -15 10
-16 4 44 226 34 125 47 144 76 109z m-2276 -38 c17 -40 29 -157 20 -186 -12
-38 -27 -7 -26 54 0 40 -3 56 -13 56 -31 0 -25 -126 8 -158 20 -20 49 -6 54
27 2 11 7 21 10 21 7 0 36 -110 30 -114 -30 -17 -82 -35 -89 -30 -5 3 -19 24
-31 47 -19 36 -22 59 -22 168 -1 92 3 130 13 142 17 21 29 13 46 -27z m2545
-193 c0 -36 -4 -46 -20 -50 -20 -5 -23 -13 -35 -70 -5 -26 -3 -33 9 -33 9 0
17 7 17 15 3 29 4 33 13 42 12 11 -1 -103 -15 -128 -18 -35 -39 -23 -41 24 -3
81 4 162 18 196 31 74 54 76 54 4z m-2815 0 c25 -52 35 -253 12 -253 -18 0
-33 38 -42 103 -4 29 -2 47 4 47 5 0 11 -17 13 -37 4 -52 24 -42 20 10 -1 27
-9 48 -22 59 -15 12 -20 29 -20 62 0 25 4 46 8 46 5 0 17 -17 27 -37z m1903
-17 c11 -24 25 -47 31 -50 6 -4 11 -11 11 -17 0 -5 -217 -9 -560 -9 -308 0
-560 2 -560 5 0 3 9 16 21 28 11 12 23 34 26 49 l5 28 217 2 c119 2 345 4 503
6 l287 2 19 -44z m-1104 -126 c64 -41 82 -106 44 -155 -29 -37 -76 -55 -145
-55 -52 0 -60 3 -95 37 -43 42 -46 55 -18 83 36 36 169 19 146 -18 -4 -7 -25
-12 -47 -12 -28 0 -39 -4 -39 -15 0 -11 11 -15 42 -15 72 0 102 50 53 88 -54
43 -145 35 -185 -15 l-20 -26 -59 56 c-32 31 -56 58 -53 61 2 3 82 5 177 5
149 0 175 -3 199 -19z m1109 -15 l-28 -35 -120 0 c-66 0 -287 -3 -490 -7
l-370 -6 -28 36 c-15 20 -27 38 -27 41 0 3 245 6 545 6 l546 0 -28 -35z m418
8 c-15 -16 -42 -41 -59 -57 l-31 -29 -25 29 c-22 27 -30 29 -91 29 -61 0 -69
-3 -91 -28 -20 -23 -22 -31 -12 -52 12 -26 54 -41 88 -30 31 10 18 30 -17 27
-17 -2 -35 3 -42 12 -17 20 22 46 70 46 38 0 89 -31 89 -54 0 -17 -60 -76 -88
-87 -62 -24 -141 -2 -185 50 -40 48 -36 85 13 133 l41 38 184 0 184 0 -28 -27z
m-1795 -140 c45 -46 78 -86 73 -88 -34 -22 -233 88 -296 163 -27 32 -29 42 -8
42 34 0 181 -98 149 -100 -6 0 -19 9 -29 20 -19 21 -45 27 -45 10 0 -13 79
-70 97 -70 22 0 27 28 9 55 -9 14 -44 45 -76 70 -33 24 -54 45 -47 48 14 5 60
-35 173 -150z m1928 138 l39 -17 -38 -43 c-89 -98 -285 -200 -285 -148 0 22
62 73 128 106 71 36 84 25 17 -15 -46 -26 -57 -44 -30 -44 40 0 134 87 120
110 -8 13 -41 13 -67 -1 -35 -19 -31 -2 9 35 43 40 52 42 107 17z m169 -10
c38 -15 73 -33 79 -39 24 -24 -2 -22 -63 4 -35 14 -74 30 -87 35 -13 5 -20 13
-17 19 9 14 13 13 88 -19z m-2393 10 c0 -4 -35 -23 -77 -41 -110 -46 -106 -45
-101 -30 2 8 38 28 79 46 78 34 99 40 99 25z m29 -54 c-17 -14 -170 -69 -176
-64 -8 9 -12 7 82 49 45 20 84 31 89 27 5 -5 8 -10 5 -12z m2346 -8 c68 -29
95 -50 63 -48 -25 1 -152 57 -156 68 -6 17 13 13 93 -20z m205 -39 c0 -5 -5
-10 -11 -10 -5 0 -7 5 -4 10 3 6 8 10 11 10 2 0 4 -4 4 -10z m-1280 -15 c-1
-5 -23 -15 -48 -21 -78 -18 -162 -74 -162 -108 0 -8 -3 -21 -6 -29 -7 -20 41
-69 84 -86 19 -8 48 -11 70 -8 43 7 79 -7 47 -19 -11 -4 -44 -18 -73 -30 -29
-13 -59 -24 -67 -24 -7 0 -17 -9 -20 -20 -3 -11 -11 -20 -16 -20 -17 0 -9 -60
11 -80 23 -23 52 -25 116 -9 31 8 49 8 56 1 15 -15 -87 -46 -158 -46 -79 0
-124 29 -124 78 0 36 14 53 77 88 l43 24 -35 17 c-20 9 -51 31 -70 49 -30 26
-35 38 -35 74 0 36 6 49 36 78 57 55 279 129 274 91z m-1222 -19 c20 -12 47
-26 60 -30 12 -4 22 -12 22 -18 0 -5 -7 -8 -15 -4 -19 7 -20 10 14 -66 17 -37
41 -72 56 -82 15 -10 25 -20 22 -22 -3 -3 -33 13 -68 36 -68 44 -83 57 -56 47
9 -4 17 -4 17 -1 0 11 -64 134 -70 134 -3 0 -15 7 -26 15 -31 24 3 17 44 -9z
m2422 4 c0 -13 -88 -100 -101 -100 -15 0 -10 11 13 29 15 12 18 20 10 25 -15
9 -76 -49 -67 -64 6 -10 -73 -65 -82 -57 -16 17 59 92 141 141 61 37 86 44 86
26z m-2599 -46 c56 -33 129 -104 129 -124 0 -6 -18 0 -40 12 -22 13 -40 30
-40 40 0 20 -63 75 -68 59 -2 -7 2 -18 8 -26 7 -9 8 -15 2 -15 -10 0 -92 85
-92 95 0 11 44 -7 101 -41z m2639 31 c-7 -9 -15 -13 -17 -11 -7 7 7 26 19 26
6 0 6 -6 -2 -15z m-2760 -16 c0 -6 -4 -7 -10 -4 -5 3 -10 11 -10 16 0 6 5 7
10 4 6 -3 10 -11 10 -16z m2350 -51 c-22 -34 -38 -63 -35 -66 2 -3 21 8 40 23
48 36 56 26 10 -11 -42 -34 -70 -61 -129 -129 -25 -27 -48 -47 -52 -43 -3 4 8
24 25 44 18 20 30 38 28 41 -3 2 -40 -17 -82 -42 -42 -26 -79 -45 -81 -42 -3
3 23 31 58 63 35 33 101 96 148 141 47 46 91 83 97 83 7 0 -5 -28 -27 -62z
m-725 12 c10 -11 16 -20 13 -20 -3 0 -13 9 -23 20 -10 11 -16 20 -13 20 3 0
13 -9 23 -20z m185 -5 c0 -2 -13 -11 -30 -20 -16 -9 -30 -12 -30 -7 0 5 10 14
23 20 25 12 37 14 37 7z m-630 -15 c-8 -5 -19 -10 -25 -10 -5 0 -3 5 5 10 8 5
20 10 25 10 6 0 3 -5 -5 -10z m-50 -9 c-8 -5 -26 -11 -40 -15 -21 -5 -20 -3 5
9 32 15 60 20 35 6z m-160 -238 c212 -217 253 -268 213 -268 -12 0 -513 483
-513 495 0 4 15 7 34 8 32 1 49 -14 266 -235z m718 207 c6 0 13 8 15 18 3 9 5
-4 6 -30 0 -27 -1 -48 -4 -48 -2 0 -19 21 -36 48 -20 28 -25 40 -12 30 11 -10
25 -18 31 -18z m382 27 c0 -2 -116 -119 -257 -260 -198 -197 -260 -253 -266
-241 -5 8 -7 19 -5 24 2 5 68 75 147 157 80 81 183 187 230 236 73 75 89 87
118 87 18 0 33 -1 33 -3z m73 -11 c16 -12 -3 -33 -198 -224 -178 -173 -222
-211 -252 -217 -33 -6 -18 12 193 222 126 126 231 230 234 231 3 1 13 -5 23
-12z m-1622 -28 c52 -41 69 -65 52 -76 -9 -6 -1 -19 27 -47 50 -49 53 -69 8
-60 -41 9 -92 35 -84 42 3 3 11 1 18 -4 24 -19 58 -25 58 -11 0 16 -65 80 -98
98 -32 16 -21 24 12 9 62 -28 31 27 -34 62 -20 10 -28 18 -18 19 9 0 35 -15
59 -32z m321 -185 c115 -115 213 -209 218 -211 21 -7 9 -23 -14 -20 -28 4
-459 414 -450 429 15 24 53 -6 246 -198z m186 190 c10 10 22 17 27 17 4 0 -5
-10 -19 -21 l-28 -22 -21 24 -22 23 23 -18 c20 -18 23 -18 40 -3z m629 -67
c-2 -6 -26 -12 -53 -13 l-49 -1 50 12 c29 7 45 15 38 19 -7 4 -22 22 -33 40
-19 28 -17 27 14 -7 20 -22 35 -45 33 -50z m-740 28 c-3 -3 -12 -4 -19 -1 -8
3 -5 6 6 6 11 1 17 -2 13 -5z m923 3 c0 -2 -10 -12 -22 -23 l-23 -19 19 23
c18 21 26 27 26 19z m-697 -14 c-7 -2 -21 -2 -30 0 -10 3 -4 5 12 5 17 0 24
-2 18 -5z m1307 -6 c-35 -32 -660 -389 -673 -384 -11 3 1 11 123 81 36 21 171
100 300 176 214 125 293 166 250 127z m-2022 -69 c473 -267 550 -312 546 -319
-4 -7 -44 14 -164 84 -19 11 -73 41 -120 67 -47 26 -123 70 -170 97 -47 27
-118 68 -157 89 -40 21 -73 42 -73 47 0 12 4 10 138 -65z m1342 8 c0 -2 -8
-10 -17 -17 -16 -13 -17 -12 -4 4 13 16 21 21 21 13z m-106 -33 c17 -28 17
-28 -2 -6 -10 12 -34 23 -53 26 l-34 4 36 1 c30 2 40 -3 53 -25z m-16 -28 c-3
-3 -9 2 -12 12 -6 14 -5 15 5 6 7 -7 10 -15 7 -18z m5 -59 c-21 -19 -41 -36
-44 -36 -3 0 -14 10 -25 23 l-19 22 23 -19 23 -20 36 37 c21 20 39 35 41 33 2
-3 -14 -20 -35 -40z m-183 24 c8 -5 11 -10 5 -10 -5 0 -17 5 -25 10 -8 5 -10
10 -5 10 6 0 17 -5 25 -10z m78 -17 c-10 -2 -28 -2 -40 0 -13 2 -5 4 17 4 22
1 32 -1 23 -4z m-23 -143 c-10 -11 -28 -19 -39 -19 -20 2 -20 2 1 6 12 2 27
11 33 19 7 8 15 14 18 14 3 0 -3 -9 -13 -20z m-43 -66 c33 -17 47 -59 27 -80
-20 -19 -114 -36 -143 -24 -31 11 -42 30 -25 41 23 14 57 10 68 -8 8 -15 12
-16 23 -5 37 36 -59 70 -108 37 -31 -20 -31 -45 2 -76 21 -19 36 -24 80 -24
l54 0 -45 -45 -45 -44 -81 81 c-88 88 -94 106 -41 141 49 32 176 35 234 6z
m255 -21 c4 -11 -56 -53 -76 -53 -6 0 -11 7 -11 15 0 26 -21 16 -31 -14 -10
-27 -62 -61 -75 -48 -13 13 77 87 123 101 52 16 65 16 70 -1z m-632 -12 c52
-23 113 -85 90 -89 -24 -5 -65 25 -65 48 0 22 -26 28 -33 8 -5 -15 -78 19 -85
40 -6 18 46 15 93 -7z m165 -142 c0 -5 -9 -4 -19 3 -11 7 -17 16 -14 20 5 10
33 -10 33 -23z m245 21 c3 -5 -8 -16 -25 -25 -33 -17 -39 -11 -13 17 18 20 29
23 38 8z"/>
<path d="M1342 3084 c-49 -29 -47 -44 7 -44 32 0 40 4 45 23 14 54 8 57 -52
21z"/>
<path d="M2703 2342 c-64 -33 -114 -99 -121 -157 -9 -80 46 -145 122 -145 29
0 94 36 133 73 84 80 77 206 -14 243 -44 19 -60 17 -120 -14z"/>
<path d="M2045 2113 c-25 -6 -61 -39 -84 -78 -29 -48 -36 -211 -13 -300 32
-123 64 -164 135 -172 59 -7 81 7 111 70 70 142 22 422 -79 470 -20 9 -39 16
-43 16 -4 -1 -16 -3 -27 -6z"/>
<path d="M2697 884 c-27 -26 -46 -48 -44 -50 10 -10 77 40 91 67 20 40 9 36
-47 -17z"/>
<path d="M814 3136 c-10 -8 -16 -17 -13 -20 3 -4 17 2 30 13 27 23 13 28 -17
7z"/>
<path d="M750 3095 c-14 -8 -20 -14 -15 -14 6 0 21 6 35 14 14 8 21 14 15 14
-5 0 -21 -6 -35 -14z"/>
<path d="M654 3034 c-18 -14 -18 -14 6 -3 31 14 36 19 24 19 -6 0 -19 -7 -30
-16z"/>
<path d="M585 3020 c-3 -6 1 -7 9 -4 18 7 21 14 7 14 -6 0 -13 -4 -16 -10z"/>
<path d="M363 2898 c-13 -6 -23 -15 -23 -20 0 -5 11 -1 25 8 37 24 35 30 -2
12z"/>
<path d="M3410 2321 c0 -287 3 -441 10 -441 7 0 10 151 10 434 0 279 -4 437
-10 441 -7 4 -10 -143 -10 -434z"/>
<path d="M248 2729 c-9 -23 -22 -1716 -13 -1707 4 4 15 -3 25 -14 17 -21 17 9
13 662 -5 723 -14 1086 -25 1059z"/>
<path d="M3411 1764 c0 -11 3 -14 6 -6 3 7 2 16 -1 19 -3 4 -6 -2 -5 -13z"/>
<path d="M3220 875 c-358 -209 -1089 -634 -1212 -705 -71 -40 -128 -75 -128
-77 0 -14 1427 791 1499 846 13 10 22 23 20 28 -2 6 -83 -35 -179 -92z"/>
<path d="M270 965 c0 -13 496 -312 800 -483 69 -38 176 -99 238 -136 62 -36
115 -66 117 -66 3 0 33 -17 68 -39 121 -74 306 -171 327 -171 28 0 25 14 -7
31 -16 8 -149 83 -298 168 -148 85 -324 184 -390 221 -66 37 -138 77 -160 90
-22 12 -47 28 -56 36 -8 8 -19 14 -24 14 -4 0 -44 21 -89 47 -45 25 -106 60
-136 76 -30 16 -62 35 -70 42 -8 7 -43 27 -77 45 -35 17 -68 37 -75 43 -13 12
-153 87 -163 87 -3 0 -5 -2 -5 -5z"/>
</g>
</svg>
